<svg xmlns="http://www.w3.org/2000/svg" viewBox="0 0 720 200" width="720" height="200" role="img" aria-label="Internships posted per week, last 16 weeks"><title>Internships posted per week</title><g font-family="-apple-system,Segoe UI,Roboto,sans-serif" font-size="11"><line x1="38" y1="174.0" x2="706" y2="174.0" stroke="#30363d" stroke-width="1"/><text x="32" y="178.0" text-anchor="end" fill="#8b949e">0</text><line x1="38" y1="98.0" x2="706" y2="98.0" stroke="#30363d" stroke-width="1"/><text x="32" y="102.0" text-anchor="end" fill="#8b949e">92</text><line x1="38" y1="22.0" x2="706" y2="22.0" stroke="#30363d" stroke-width="1"/><text x="32" y="26.0" text-anchor="end" fill="#8b949e">183</text><path d="M38.0,174 L38.0,171.5 L82.5,153.2 L127.1,163.2 L171.6,164.9 L216.1,160.7 L260.7,139.9 L305.2,158.2 L349.7,144.1 L394.3,138.3 L438.8,140.8 L483.3,116.7 L527.9,117.5 L572.4,85.1 L616.9,22.8 L661.5,22.0 L706.0,154.9 L706.0,174 Z" fill="#2f81f7" fill-opacity="0.12"/><polyline points="38.0,171.5 82.5,153.2 127.1,163.2 171.6,164.9 216.1,160.7 260.7,139.9 305.2,158.2 349.7,144.1 394.3,138.3 438.8,140.8 483.3,116.7 527.9,117.5 572.4,85.1 616.9,22.8 661.5,22.0 706.0,154.9" fill="none" stroke="#2f81f7" stroke-width="2" stroke-linejoin="round" stroke-linecap="round"/><circle cx="661.5" cy="22.0" r="3.5" fill="#2f81f7"/><text x="661.5" y="13.0" text-anchor="middle" fill="#e6edf3" font-weight="600">183</text><circle cx="706.0" cy="154.9" r="3.5" fill="#2f81f7"/><text x="706.0" y="145.9" text-anchor="middle" fill="#e6edf3" font-weight="600">23</text><text x="38.0" y="192" text-anchor="middle" fill="#8b949e">May 25</text><text x="216.1" y="192" text-anchor="middle" fill="#8b949e">Jun 22</text><text x="394.3" y="192" text-anchor="middle" fill="#8b949e">Jul 20</text><text x="572.4" y="192" text-anchor="middle" fill="#8b949e">Aug 17</text><text x="706.0" y="192" text-anchor="middle" fill="#8b949e">Sep 07</text></g></svg>